
          <svg data-logo="logo" xmlns="http://www.w3.org/2000/svg" viewBox="0 0 48 43">
            <g id="logogram" transform="translate(0, 1) rotate(0)"><path fill-rule="evenodd" clip-rule="evenodd" d="M10.1669 0.782715C15.6897 0.782715 20.1669 5.25986 20.1669 10.7827V0.782715H30.1669C35.6897 0.782715 40.1669 5.25986 40.1669 10.7827C40.1669 16.3055 35.6897 20.7827 30.1669 20.7827C35.6897 20.7827 40.1669 25.2599 40.1669 30.7827C40.1669 33.525 39.063 36.0095 37.2754 37.8161L37.238 37.8538L37.2048 37.8868C35.3978 39.677 32.9115 40.7827 30.1669 40.7827C27.441 40.7827 24.9698 39.692 23.1659 37.9232C23.1425 37.9002 23.1191 37.877 23.0958 37.8538C23.0739 37.8319 23.0521 37.8099 23.0304 37.7878C21.2593 35.9836 20.1669 33.5107 20.1669 30.7827C20.1669 36.3055 15.6897 40.7827 10.1669 40.7827C4.64402 40.7827 0.16687 36.3055 0.16687 30.7827V20.7827H10.1669C4.64402 20.7827 0.16687 16.3055 0.16687 10.7827C0.16687 5.25986 4.64402 0.782715 10.1669 0.782715ZM18.1669 10.7827C18.1669 15.201 14.5852 18.7827 10.1669 18.7827V2.78271C14.5852 2.78271 18.1669 6.36443 18.1669 10.7827ZM38.1669 30.7827C38.1669 26.3644 34.5852 22.7827 30.1669 22.7827C25.7486 22.7827 22.1669 26.3644 22.1669 30.7827H38.1669ZM2.16687 22.7827V30.7827C2.16687 35.201 5.74859 38.7827 10.1669 38.7827C14.5852 38.7827 18.1669 35.201 18.1669 30.7827V22.7827H2.16687ZM22.1669 18.7827V2.78271H30.1669C34.5852 2.78271 38.1669 6.36443 38.1669 10.7827C38.1669 15.201 34.5852 18.7827 30.1669 18.7827H22.1669Z" fill="#000"/></g>
            <g id="logotype" transform="translate(47, 21.5)"><path fill="#111111" d=""/></g>
            
          </svg>
        